<!DOCTYPE svg PUBLIC "-//W3C//DTD SVG 1.1//EN" "http://www.w3.org/Graphics/SVG/1.1/DTD/svg11.dtd">
<!-- Uploaded to: SVG Repo, www.svgrepo.com, Transformed by: SVG Repo Mixer Tools -->
<svg fill="#506b7a" height="800px" width="800px" version="1.1" id="Layer_1" xmlns="http://www.w3.org/2000/svg" xmlns:xlink="http://www.w3.org/1999/xlink" viewBox="0 0 459 459" xml:space="preserve" stroke="#506b7a">
<g id="SVGRepo_bgCarrier" stroke-width="0"/>
<g id="SVGRepo_tracerCarrier" stroke-linecap="round" stroke-linejoin="round"/>
<g id="SVGRepo_iconCarrier"> <g> <g> <path d="M229.5,0C102.751,0,0,102.751,0,229.5S102.751,459,229.5,459S459,356.249,459,229.5S356.249,0,229.5,0z M376.938,266.841 c-3.704,5.5-9.44,9.303-15.948,10.572c-1.589,0.31-3.192,0.463-4.788,0.463c-4.94,0-9.808-1.464-13.965-4.264l-46.315-31.192 c-11.452-7.712-14.483-23.249-6.771-34.701c7.255-10.771,21.426-14.09,32.614-8.032c-12.472-36.96-47.469-63.647-88.583-63.647 c-51.534,0-93.46,41.926-93.46,93.46s41.926,93.46,93.46,93.46c13.807,0,25,11.193,25,25s-11.193,25-25,25 c-79.104,0-143.46-64.355-143.46-143.46s64.355-143.46,143.46-143.46c64.713,0,119.547,43.075,137.359,102.056 c8.322-7.607,21.052-8.848,30.818-2.271c11.452,7.712,14.483,23.249,6.772,34.701L376.938,266.841z"/> </g> </g> </g>
</svg>